<?xml version="1.0" standalone="no"?>
<!DOCTYPE svg PUBLIC "-//W3C//DTD SVG 20010904//EN"
 "http://www.w3.org/TR/2001/REC-SVG-20010904/DTD/svg10.dtd">
<svg version="1.0" xmlns="http://www.w3.org/2000/svg"
 width="32.000000pt" height="32.000000pt" viewBox="0 0 32.000000 32.000000"
 preserveAspectRatio="xMidYMid meet">

<g transform="translate(0.000000,32.000000) scale(0.100000,-0.100000)"
fill="#000000" stroke="none">
<path d="M12 308 c-17 -17 -17 -279 0 -296 17 -17 279 -17 296 0 17 17 17 279
0 296 -17 17 -279 17 -296 0z m236 -55 c-2 -13 -16 -20 -43 -23 -32 -4 -41
-10 -43 -27 -3 -19 1 -23 23 -23 37 0 27 -24 -12 -28 -27 -3 -31 -7 -39 -50
-6 -31 -14 -47 -24 -47 -11 0 -15 12 -14 48 0 35 -4 47 -14 47 -10 0 -6 8 12
25 14 13 26 31 26 40 0 17 -16 20 -25 5 -3 -5 -13 -10 -21 -10 -12 0 -12 4 -4
20 13 24 58 38 128 39 46 1 53 -2 50 -16z"/>
</g>
</svg>
